<svg width="360" height="186" viewBox="0 0 360 186" fill="none" xmlns="http://www.w3.org/2000/svg">
<mask id="mask0_1_6" style="mask-type:luminance" maskUnits="userSpaceOnUse" x="0" y="0" width="360" height="186">
<rect width="360" height="186" fill="white"/>
</mask>
<g mask="url(#mask0_1_6)">
<path fill-rule="evenodd" clip-rule="evenodd" d="M256.228 93.8133C256.228 93.8133 256.228 79.871 269.524 81.119C269.524 81.119 277.332 82.7946 277.543 92.3943V115.038L256.228 93.8133Z" fill="#EA5453"/>
<path fill-rule="evenodd" clip-rule="evenodd" d="M256.317 93.7233C256.317 93.7233 242.375 93.7233 243.623 107.019C243.623 107.019 245.299 114.828 254.898 115.039H277.543" fill="#EA5453"/>
<path fill-rule="evenodd" clip-rule="evenodd" d="M64.3662 135.158C64.3662 148.333 53.685 159.015 40.5091 159.015C27.3333 159.015 16.6521 148.333 16.6521 135.158C16.6521 121.982 27.3333 111.3 40.5091 111.3C53.685 111.3 64.3662 121.982 64.3662 135.158Z" fill="#F5BF48"/>
<path fill-rule="evenodd" clip-rule="evenodd" d="M142.145 17.2496C142.53 17.6335 142.53 18.2572 142.145 18.6418C141.761 19.0257 141.761 19.65 142.145 20.034L143.298 21.1878C144.453 22.3416 144.453 24.2098 143.298 25.3643L142.145 26.5182C141.761 26.9021 141.761 27.5265 142.145 27.9104L143.298 29.0635C144.453 30.2173 144.453 32.0862 143.298 33.2407L142.145 34.3939C141.761 34.7778 141.761 35.4022 142.145 35.7861L143.298 36.9399C144.453 38.0937 144.453 39.9619 143.298 41.1165L141.756 42.6591C141.457 42.9586 141.382 43.4157 141.572 43.7954C141.815 44.2819 141.618 44.8732 141.131 45.1158C140.646 45.3591 140.053 45.1629 139.811 44.6757C139.241 43.5366 139.464 42.1669 140.364 41.2669L141.906 39.7243C142.291 39.3383 142.291 38.7167 141.906 38.3321L140.753 37.1782C139.601 36.0265 139.601 34.1527 140.753 33.0017L141.906 31.8486C142.291 31.4618 142.291 30.8403 141.906 30.4564L140.753 29.3025C139.601 28.1508 139.601 26.277 140.753 25.126L141.906 23.9722C142.291 23.5861 142.291 22.9639 141.906 22.58L140.753 21.4261C139.601 20.2744 139.601 18.4006 140.753 17.2496C141.138 16.865 141.761 16.865 142.145 17.2496Z" fill="#D4D4D4"/>
<mask id="mask1_1_6" style="mask-type:luminance" maskUnits="userSpaceOnUse" x="0" y="-4" width="360" height="190">
<path fill-rule="evenodd" clip-rule="evenodd" d="M0 185.591H359.987V-3.29688H0V185.591Z" fill="white"/>
</mask>
<g mask="url(#mask1_1_6)">
<path fill-rule="evenodd" clip-rule="evenodd" d="M9.58569 28.6243H12.1183V25.7752H9.58569V28.6243Z" fill="#D4D4D4"/>
<path fill-rule="evenodd" clip-rule="evenodd" d="M9.58569 23.8213H12.1183V13.1127H9.58569V23.8213Z" fill="#D4D4D4"/>
<path fill-rule="evenodd" clip-rule="evenodd" d="M4.75806 37.5674H7.29071V22.3721H4.75806V37.5674Z" fill="#D4D4D4"/>
<path fill-rule="evenodd" clip-rule="evenodd" d="M142.145 115.136C142.53 115.521 142.53 116.145 142.145 116.529C141.761 116.912 141.761 117.537 142.145 117.921L143.298 119.075C144.453 120.228 144.453 122.097 143.298 123.251L142.145 124.405C141.761 124.789 141.761 125.413 142.145 125.797L143.298 126.951C144.453 128.104 144.453 129.973 143.298 131.128L142.145 132.281C141.761 132.665 141.761 133.289 142.145 133.673L143.298 134.827C144.453 135.981 144.453 137.849 143.298 139.003L141.756 140.546C141.457 140.845 141.382 141.302 141.572 141.683C141.815 142.169 141.618 142.76 141.131 143.003C140.646 143.247 140.053 143.05 139.811 142.562C139.241 141.424 139.464 140.054 140.364 139.154L141.906 137.612C142.291 137.225 142.291 136.603 141.906 136.219L140.753 135.066C139.601 133.913 139.601 132.039 140.753 130.888L141.906 129.735C142.291 129.349 142.291 128.727 141.906 128.343L140.753 127.19C139.601 126.038 139.601 124.164 140.753 123.013L141.906 121.86C142.291 121.473 142.291 120.851 141.906 120.467L140.753 119.313C139.601 118.162 139.601 116.288 140.753 115.136C141.138 114.752 141.761 114.752 142.145 115.136Z" fill="#D4D4D4"/>
<path fill-rule="evenodd" clip-rule="evenodd" d="M259.591 128.693C259.207 129.076 259.207 129.701 259.591 130.085L260.744 131.239C261.899 132.393 261.899 134.261 260.744 135.416L259.591 136.57C259.207 136.954 259.207 137.577 259.591 137.962L260.744 139.115C261.899 140.269 261.899 142.138 260.744 143.291L259.591 144.445C259.207 144.829 259.207 145.454 259.591 145.838L260.744 146.991C261.899 148.145 261.899 150.013 260.744 151.168L259.202 152.711C258.903 153.01 258.828 153.467 259.018 153.847C259.261 154.333 259.064 154.924 258.577 155.168C258.092 155.411 257.499 155.214 257.257 154.727C256.687 153.588 256.91 152.218 257.81 151.318L259.352 149.776C259.738 149.39 259.737 148.767 259.352 148.384L258.199 147.23C257.047 146.078 257.047 144.204 258.199 143.053L259.352 141.9C259.738 141.513 259.737 140.892 259.352 140.507L258.199 139.354C257.047 138.202 257.047 136.328 258.199 135.177L259.352 134.024C259.738 133.638 259.737 133.015 259.352 132.631L258.199 131.478C257.047 130.326 257.047 128.452 258.199 127.301C258.584 126.916 259.207 126.916 259.591 127.301C259.976 127.685 259.976 128.309 259.591 128.693Z" fill="#D4D4D4"/>
<path fill-rule="evenodd" clip-rule="evenodd" d="M308.922 65.1228C309.307 65.5067 309.307 66.1304 308.922 66.515C308.538 66.8989 308.538 67.5233 308.922 67.9072L310.075 69.061C311.23 70.2148 311.23 72.083 310.075 73.2376L308.922 74.3907C308.538 74.7746 308.538 75.3997 308.922 75.7836L310.075 76.9367C311.23 78.0912 311.23 79.9587 310.075 81.114L308.922 82.2671C308.538 82.651 308.538 83.2754 308.922 83.66L310.075 84.8124C311.23 85.9669 311.23 87.8352 310.075 88.9897L308.534 90.5316C308.234 90.8326 308.159 91.2889 308.349 91.6686C308.592 92.1552 308.395 92.7465 307.908 92.9891C307.424 93.2323 306.831 93.0362 306.588 92.5482C306.018 91.4098 306.241 90.0402 307.141 89.1402L308.683 87.5975C309.069 87.2115 309.068 86.5899 308.683 86.2053L307.53 85.0515C306.378 83.9005 306.378 82.0266 307.53 80.8749L308.683 79.7211C309.069 79.3351 309.068 78.7135 308.683 78.3296L307.53 77.1758C306.378 76.0234 306.378 74.1495 307.53 72.9992L308.683 71.8454C309.069 71.4587 309.068 70.8371 308.683 70.4532L307.53 69.2994C306.378 68.1477 306.378 66.2738 307.53 65.1228C307.915 64.7382 308.538 64.7382 308.922 65.1228Z" fill="#D4D4D4"/>
<path fill-rule="evenodd" clip-rule="evenodd" d="M9.97487 100.17C8.9905 100.17 8.18964 100.97 8.18964 101.955C8.18964 102.939 8.9905 103.739 9.97487 103.739C10.9585 103.739 11.7594 102.939 11.7594 101.955C11.7594 100.97 10.9585 100.17 9.97487 100.17ZM9.97487 106.272C7.59409 106.272 5.65698 104.336 5.65698 101.955C5.65698 99.574 7.59409 97.6376 9.97487 97.6376C12.355 97.6376 14.2921 99.574 14.2921 101.955C14.2921 104.336 12.355 106.272 9.97487 106.272Z" fill="#D4D4D4"/>
<path fill-rule="evenodd" clip-rule="evenodd" d="M20.3854 50.2573C20.77 50.6419 20.77 51.2655 20.3854 51.6495C20.0015 52.0334 20.0015 52.6584 20.3854 53.0416L21.5385 54.1955C22.6938 55.3493 22.6938 57.2175 21.5385 58.3727L20.3854 59.5259C20.0015 59.9098 20.0015 60.5341 20.3854 60.918L21.5385 62.0719C22.6938 63.2257 22.6938 65.0939 21.5385 66.2484L20.3854 67.4016C20.0015 67.7862 20.0015 68.4106 20.3854 68.7945L21.5385 69.9476C22.6938 71.1021 22.6938 72.9703 21.5385 74.1241L19.9966 75.6668C19.697 75.9663 19.6225 76.4241 19.8124 76.8038C20.0549 77.2896 19.8581 77.8809 19.3715 78.1242C18.887 78.3675 18.2936 78.1706 18.051 77.6834C17.4822 76.545 17.7044 75.1746 18.6044 74.2746L20.1463 72.7327C20.5324 72.3459 20.531 71.7244 20.1463 71.3398L18.9932 70.1866C17.8415 69.0349 17.8415 67.1611 18.9932 66.0094L20.1463 64.8563C20.5324 64.4702 20.531 63.8487 20.1463 63.4641L18.9932 62.3102C17.8415 61.1585 17.8415 59.2847 18.9932 58.1337L20.1463 56.9805C20.5324 56.5938 20.531 55.9723 20.1463 55.5884L18.9932 54.4338C17.8415 53.2821 17.8415 51.4083 18.9932 50.2573C19.3778 49.8727 20.0008 49.8727 20.3854 50.2573Z" fill="#D4D4D4"/>
<path fill-rule="evenodd" clip-rule="evenodd" d="M30.2104 31.9402H32.7234V29.2395H30.2104V31.9402Z" fill="#979797"/>
<path fill-rule="evenodd" clip-rule="evenodd" d="M30.2104 27.0971H32.7234V24.3964H30.2104V27.0971Z" fill="#979797"/>
<path fill-rule="evenodd" clip-rule="evenodd" d="M30.2104 22.2694H32.7234V19.5687H30.2104V22.2694Z" fill="#979797"/>
<path fill-rule="evenodd" clip-rule="evenodd" d="M30.2104 46.4886H32.7234V43.7879H30.2104V46.4886Z" fill="#979797"/>
<path fill-rule="evenodd" clip-rule="evenodd" d="M30.2104 41.6455H32.7234V38.9448H30.2104V41.6455Z" fill="#979797"/>
<path fill-rule="evenodd" clip-rule="evenodd" d="M30.2104 36.8178H32.7234V34.1171H30.2104V36.8178Z" fill="#979797"/>
<path fill-rule="evenodd" clip-rule="evenodd" d="M30.2104 61.0369H32.7234V58.3362H30.2104V61.0369Z" fill="#979797"/>
<path fill-rule="evenodd" clip-rule="evenodd" d="M30.2104 56.1931H32.7234V53.4924H30.2104V56.1931Z" fill="#979797"/>
<path fill-rule="evenodd" clip-rule="evenodd" d="M30.2104 51.3662H32.7234V48.6655H30.2104V51.3662Z" fill="#979797"/>
<path fill-rule="evenodd" clip-rule="evenodd" d="M126.131 15.9006H128.643V13.2006H126.131V15.9006Z" fill="#979797"/>
<path fill-rule="evenodd" clip-rule="evenodd" d="M126.131 11.0574H128.643V8.35669H126.131V11.0574Z" fill="#979797"/>
<path fill-rule="evenodd" clip-rule="evenodd" d="M126.131 6.22976H128.643V3.52905H126.131V6.22976Z" fill="#979797"/>
<path fill-rule="evenodd" clip-rule="evenodd" d="M214.097 49.9733H216.61V47.2733H214.097V49.9733Z" fill="#979797"/>
<path fill-rule="evenodd" clip-rule="evenodd" d="M214.097 45.1302H216.61V42.4302H214.097V45.1302Z" fill="#979797"/>
<path fill-rule="evenodd" clip-rule="evenodd" d="M214.097 40.3025H216.61V37.6025H214.097V40.3025Z" fill="#979797"/>
<path fill-rule="evenodd" clip-rule="evenodd" d="M86.2046 160.059H88.7176V157.359H86.2046V160.059Z" fill="#979797"/>
<path fill-rule="evenodd" clip-rule="evenodd" d="M86.2046 155.216H88.7176V152.516H86.2046V155.216Z" fill="#979797"/>
<path fill-rule="evenodd" clip-rule="evenodd" d="M86.2046 150.389H88.7176V147.688H86.2046V150.389Z" fill="#979797"/>
<path fill-rule="evenodd" clip-rule="evenodd" d="M86.2046 164.937H88.7176V162.237H86.2046V164.937Z" fill="#979797"/>
<path fill-rule="evenodd" clip-rule="evenodd" d="M347.055 70.7077H349.568V68.007H347.055V70.7077Z" fill="#979797"/>
<path fill-rule="evenodd" clip-rule="evenodd" d="M347.055 65.8639H349.568V63.1632H347.055V65.8639Z" fill="#979797"/>
<path fill-rule="evenodd" clip-rule="evenodd" d="M347.055 61.0369H349.568V58.3362H347.055V61.0369Z" fill="#979797"/>
<path fill-rule="evenodd" clip-rule="evenodd" d="M347.055 75.5853H349.568V72.8846H347.055V75.5853Z" fill="#979797"/>
<path fill-rule="evenodd" clip-rule="evenodd" d="M285.008 117.377H287.521V114.677H285.008V117.377Z" fill="#979797"/>
<path fill-rule="evenodd" clip-rule="evenodd" d="M285.008 112.534H287.521V109.833H285.008V112.534Z" fill="#979797"/>
<path fill-rule="evenodd" clip-rule="evenodd" d="M285.008 107.706H287.521V105.006H285.008V107.706Z" fill="#979797"/>
<path fill-rule="evenodd" clip-rule="evenodd" d="M285.008 127.082H287.521V124.382H285.008V127.082Z" fill="#979797"/>
<path fill-rule="evenodd" clip-rule="evenodd" d="M285.008 122.255H287.521V119.555H285.008V122.255Z" fill="#979797"/>
<path fill-rule="evenodd" clip-rule="evenodd" d="M77.5941 99.0888C77.5941 100.873 76.1477 102.319 74.3632 102.319C72.5794 102.319 71.1331 100.873 71.1331 99.0888C71.1331 97.3042 72.5794 95.8579 74.3632 95.8579C76.1477 95.8579 77.5941 97.3042 77.5941 99.0888Z" fill="#C0D54C"/>
<path fill-rule="evenodd" clip-rule="evenodd" d="M313.028 45.1381C313.028 46.9226 311.581 48.3689 309.797 48.3689C308.013 48.3689 306.567 46.9226 306.567 45.1381C306.567 43.3542 308.013 41.9079 309.797 41.9079C311.581 41.9079 313.028 43.3542 313.028 45.1381Z" fill="#C0D54C"/>
<path fill-rule="evenodd" clip-rule="evenodd" d="M166.458 77.6977C166.458 79.4815 165.011 80.9286 163.227 80.9286C161.443 80.9286 159.997 79.4815 159.997 77.6977C159.997 75.9132 161.443 74.4669 163.227 74.4669C165.011 74.4669 166.458 75.9132 166.458 77.6977Z" fill="#44C0BE"/>
<path fill-rule="evenodd" clip-rule="evenodd" d="M9.25218 59.2781L4.62632 63.9039L-0.000244141 59.2781L4.62632 54.6515L9.25218 59.2781Z" fill="#EA5453"/>
<path fill-rule="evenodd" clip-rule="evenodd" d="M39.1318 107.502H41.6645V-0.764221H39.1318V107.502Z" fill="#D4D4D4"/>
<path fill-rule="evenodd" clip-rule="evenodd" d="M35.6492 112.989H38.1818V106.763H35.6492V112.989Z" fill="#D4D4D4"/>
<path fill-rule="evenodd" clip-rule="evenodd" d="M42.4033 112.989H44.936V106.763H42.4033V112.989Z" fill="#D4D4D4"/>
<path fill-rule="evenodd" clip-rule="evenodd" d="M35.6428 108.769H44.9395V106.236H35.6428V108.769Z" fill="#D4D4D4"/>
<path fill-rule="evenodd" clip-rule="evenodd" d="M36.6981 135.993C37.1186 140.17 40.6539 143.441 44.9395 143.441C49.2243 143.441 52.7603 140.17 53.1808 135.993H36.6981ZM44.9395 145.973C38.9756 145.973 34.1233 141.121 34.1233 135.157C34.1233 135.038 34.1303 134.92 34.1381 134.802L34.1985 133.46H55.6748L55.7324 134.667C55.7479 134.914 55.7556 135.035 55.7556 135.157C55.7556 141.121 50.9034 145.973 44.9395 145.973Z" fill="#D4D4D4"/>
<path fill-rule="evenodd" clip-rule="evenodd" d="M39.1253 125.639C40.1413 125.639 40.9766 126.397 41.1144 127.376H43.6471C43.4987 125 41.5384 123.105 39.1253 123.105C36.7122 123.105 34.7504 125 34.6028 127.376H37.1354C37.2733 126.397 38.1086 125.639 39.1253 125.639Z" fill="#D4D4D4"/>
<path fill-rule="evenodd" clip-rule="evenodd" d="M50.5215 125.639C51.5375 125.639 52.3729 126.397 52.5107 127.376H55.0433C54.895 125 52.9346 123.105 50.5215 123.105C48.1084 123.105 46.1474 125 45.999 127.376H48.5317C48.6695 126.397 49.5048 125.639 50.5215 125.639Z" fill="#D4D4D4"/>
<path fill-rule="evenodd" clip-rule="evenodd" d="M338.272 139.897C338.272 148.732 331.11 155.895 322.274 155.895C313.438 155.895 306.275 148.732 306.275 139.897C306.275 131.061 313.438 123.899 322.274 123.899C331.11 123.899 338.272 131.061 338.272 139.897Z" fill="#44C0BE"/>
<path fill-rule="evenodd" clip-rule="evenodd" d="M320.871 120.047H323.404V-0.763489H320.871V120.047Z" fill="#D4D4D4"/>
<path fill-rule="evenodd" clip-rule="evenodd" d="M317.388 125.534H319.921V119.308H317.388V125.534Z" fill="#D4D4D4"/>
<path fill-rule="evenodd" clip-rule="evenodd" d="M324.141 125.534H326.674V119.308H324.141V125.534Z" fill="#D4D4D4"/>
<path fill-rule="evenodd" clip-rule="evenodd" d="M317.381 121.314H326.678V118.781H317.381V121.314Z" fill="#D4D4D4"/>
</g>
<mask id="mask2_1_6" style="mask-type:luminance" maskUnits="userSpaceOnUse" x="306" y="137" width="33" height="7">
<path fill-rule="evenodd" clip-rule="evenodd" d="M306.613 143.18C306.392 142.121 306.276 141.022 306.276 139.897C306.276 138.996 306.35 138.113 306.493 137.253L338.055 137.253C338.198 138.113 338.273 138.996 338.273 139.897C338.273 141.022 338.157 142.121 337.935 143.18H306.613Z" fill="white"/>
</mask>
<g mask="url(#mask2_1_6)">
<path fill-rule="evenodd" clip-rule="evenodd" d="M330.404 143.18L326.312 140.342L322.302 143.161L317.949 140.317L313.716 143.161L309.588 140.342L306.354 142.659L304.879 140.602L309.553 137.253L313.727 140.101L317.929 137.279L322.25 140.101L326.302 137.253L330.381 140.082L334.301 137.273L339.519 140.559L338.168 142.702L334.392 140.323L330.404 143.18Z" fill="#D4D4D4"/>
</g>
<path fill-rule="evenodd" clip-rule="evenodd" d="M233.992 53.4532C223.657 53.4532 215.25 61.8612 215.25 72.195C215.25 82.5289 223.657 90.9368 233.992 90.9368C244.326 90.9368 252.734 82.5289 252.734 72.195C252.734 61.8612 244.326 53.4532 233.992 53.4532ZM233.992 93.4695C222.261 93.4695 212.717 83.9253 212.717 72.195C212.717 60.4648 222.261 50.9206 233.992 50.9206C245.723 50.9206 255.266 60.4648 255.266 72.195C255.266 83.9253 245.723 93.4695 233.992 93.4695Z" fill="#D4D4D4"/>
<mask id="mask3_1_6" style="mask-type:luminance" maskUnits="userSpaceOnUse" x="0" y="-4" width="360" height="190">
<path fill-rule="evenodd" clip-rule="evenodd" d="M0 185.591H359.987V-3.29688H0V185.591Z" fill="white"/>
</mask>
<g mask="url(#mask3_1_6)">
<path fill-rule="evenodd" clip-rule="evenodd" d="M232.589 46.014H235.122V-0.764221H232.589V46.014Z" fill="#D4D4D4"/>
<path fill-rule="evenodd" clip-rule="evenodd" d="M229.106 51.5012H231.639V45.275H229.106V51.5012Z" fill="#D4D4D4"/>
<path fill-rule="evenodd" clip-rule="evenodd" d="M235.86 51.5012H238.393V45.275H235.86V51.5012Z" fill="#D4D4D4"/>
<path fill-rule="evenodd" clip-rule="evenodd" d="M229.1 47.2803H238.397V44.7477H229.1V47.2803Z" fill="#D4D4D4"/>
</g>
<mask id="mask4_1_6" style="mask-type:luminance" maskUnits="userSpaceOnUse" x="214" y="64" width="40" height="7">
<path fill-rule="evenodd" clip-rule="evenodd" d="M253.955 70.8484C253.799 68.5017 253.239 66.2657 252.343 64.2095L215.641 64.2095C214.745 66.2657 214.184 68.5017 214.028 70.8484H253.955Z" fill="white"/>
</mask>
<g mask="url(#mask4_1_6)">
<path fill-rule="evenodd" clip-rule="evenodd" d="M244.157 70.8484L239.041 67.2998L234.02 70.8288L228.58 67.2738L223.29 70.8288L218.122 67.3012L213.897 70.3281L212.422 68.2701L218.086 64.2095L223.301 67.7695L228.561 64.2363L233.968 67.7695L239.031 64.2109L244.134 67.7498L249.045 64.2292L255.39 68.2279L254.04 70.3696L249.136 67.2808L244.157 70.8484Z" fill="#D4D4D4"/>
</g>
<mask id="mask5_1_6" style="mask-type:luminance" maskUnits="userSpaceOnUse" x="214" y="75" width="40" height="8">
<path fill-rule="evenodd" clip-rule="evenodd" d="M214.273 75.6058C214.682 77.9894 215.513 80.2289 216.686 82.2447H251.297C252.47 80.2289 253.301 77.9894 253.71 75.6058H214.273L214.273 75.6058Z" fill="white"/>
</mask>
<g mask="url(#mask5_1_6)">
<path fill-rule="evenodd" clip-rule="evenodd" d="M244.157 82.2447L239.041 78.696L234.02 82.225L228.58 78.67L223.29 82.225L218.122 78.6967L213.897 81.7244L212.422 79.6663L218.086 75.6058L223.301 79.1657L228.561 75.6332L233.968 79.1657L239.031 75.6072L244.134 79.146L249.045 75.6255L255.39 79.6241L254.04 81.7659L249.136 78.6777L244.157 82.2447Z" fill="#D4D4D4"/>
</g>
<path fill-rule="evenodd" clip-rule="evenodd" d="M161.479 27.0964H164.011V0.0795288H161.479V27.0964Z" fill="#D4D4D4"/>
<path fill-rule="evenodd" clip-rule="evenodd" d="M162.745 54.6728L180.196 67.4028L173.589 46.6628L191.041 34.4157H169.811L162.745 13.1863L155.678 34.4157H134.449L151.901 46.6628L145.293 67.4028L162.745 54.6728Z" fill="#F5BF48"/>
<path fill-rule="evenodd" clip-rule="evenodd" d="M114.65 68.3509H117.182V0.0802612H114.65V68.3509Z" fill="#D4D4D4"/>
<path fill-rule="evenodd" clip-rule="evenodd" d="M111.167 73.8373H113.7V67.6111H111.167V73.8373Z" fill="#D4D4D4"/>
<path fill-rule="evenodd" clip-rule="evenodd" d="M117.92 73.8373H120.453V67.6111H117.92V73.8373Z" fill="#D4D4D4"/>
<path fill-rule="evenodd" clip-rule="evenodd" d="M111.16 69.6165H120.457V67.0838H111.16V69.6165Z" fill="#D4D4D4"/>
<path fill-rule="evenodd" clip-rule="evenodd" d="M98.8052 100.908C94.1358 91.6447 97.8602 80.3504 107.124 75.681C116.387 71.0115 127.681 74.736 132.351 83.9989C137.02 93.2626 133.296 104.557 124.033 109.226C114.769 113.896 103.475 110.172 98.8052 100.908Z" fill="#EA5453"/>
<path fill-rule="evenodd" clip-rule="evenodd" d="M97.1797 86.5555H133.976V84.0228H97.1797V86.5555Z" fill="#D4D4D4"/>
<path fill-rule="evenodd" clip-rule="evenodd" d="M97.1797 103.221H133.976V100.688H97.1797V103.221Z" fill="#D4D4D4"/>
<path fill-rule="evenodd" clip-rule="evenodd" d="M106.936 94.8784H109.637V92.3661H106.936V94.8784Z" fill="#979797"/>
<path fill-rule="evenodd" clip-rule="evenodd" d="M102.093 94.8784H104.794V92.3661H102.093V94.8784Z" fill="#979797"/>
<path fill-rule="evenodd" clip-rule="evenodd" d="M97.2656 94.8784H99.9663V92.3661H97.2656V94.8784Z" fill="#979797"/>
<path fill-rule="evenodd" clip-rule="evenodd" d="M121.485 94.8784H124.185V92.3661H121.485V94.8784Z" fill="#979797"/>
<path fill-rule="evenodd" clip-rule="evenodd" d="M116.642 94.8784H119.342V92.3661H116.642V94.8784Z" fill="#979797"/>
<path fill-rule="evenodd" clip-rule="evenodd" d="M111.814 94.8784H114.515V92.3661H111.814V94.8784Z" fill="#979797"/>
<path fill-rule="evenodd" clip-rule="evenodd" d="M131.19 94.8784H133.891V92.3661H131.19V94.8784Z" fill="#979797"/>
<path fill-rule="evenodd" clip-rule="evenodd" d="M126.362 94.8784H129.063V92.3661H126.362V94.8784Z" fill="#979797"/>
<path fill-rule="evenodd" clip-rule="evenodd" d="M62.3554 64.8894C62.0348 64.8894 61.7121 64.9041 61.3879 64.9351C55.661 65.4645 51.4324 70.5537 51.9618 76.2821C52.4913 82.0083 57.5833 86.251 63.3082 85.7061C66.0834 85.4501 68.5907 84.1283 70.3718 81.9851C72.1521 79.842 72.9909 77.1343 72.7343 74.3605C72.2343 68.959 67.6774 64.8894 62.3554 64.8894ZM62.3386 88.2844C55.7243 88.2844 50.0613 83.2283 49.4404 76.5148C48.7823 69.3971 54.0368 63.0718 61.1545 62.413C64.6026 62.0994 67.9685 63.1372 70.6312 65.3492C73.2946 67.5619 74.9371 70.6789 75.2557 74.1277C75.5749 77.5744 74.5321 80.9403 72.3194 83.6037C70.1067 86.2679 66.9897 87.9097 63.5416 88.2289C63.138 88.2662 62.7358 88.2844 62.3386 88.2844Z" fill="#D4D4D4"/>
<path fill-rule="evenodd" clip-rule="evenodd" d="M61.1882 59.4029H63.7209V0.0802612H61.1882V59.4029Z" fill="#D4D4D4"/>
<path fill-rule="evenodd" clip-rule="evenodd" d="M57.7063 63.6245H60.239V58.6646H57.7063V63.6245Z" fill="#D4D4D4"/>
<path fill-rule="evenodd" clip-rule="evenodd" d="M64.4597 63.6245H66.9924V58.6646H64.4597V63.6245Z" fill="#D4D4D4"/>
<path fill-rule="evenodd" clip-rule="evenodd" d="M57.7 60.6692H66.9967V58.1365H57.7V60.6692Z" fill="#D4D4D4"/>
<mask id="mask6_1_6" style="mask-type:luminance" maskUnits="userSpaceOnUse" x="50" y="72" width="25" height="6">
<path fill-rule="evenodd" clip-rule="evenodd" d="M73.8105 72.9877C73.8935 73.3984 73.9554 73.8177 73.9948 74.2444C74.1031 75.4138 74.0352 76.559 73.813 77.6536H50.8854C50.8024 77.2433 50.7405 76.8244 50.701 76.3981C50.5929 75.2282 50.661 74.0827 50.8835 72.9877L73.8105 72.9877V72.9877Z" fill="white"/>
</mask>
<g mask="url(#mask6_1_6)">
<path fill-rule="evenodd" clip-rule="evenodd" d="M48.5072 75.0067C48.8911 74.6221 49.5155 74.6221 49.8994 75.0067C50.2833 75.3906 50.9077 75.3906 51.2916 75.0067L52.4454 73.8536C53.5992 72.699 55.4674 72.699 56.622 73.8536L57.7758 75.0067C58.1597 75.3906 58.7841 75.3906 59.168 75.0067L60.3211 73.8536C61.4749 72.699 63.3438 72.699 64.4984 73.8536L65.6515 75.0067C66.0354 75.3906 66.6598 75.3906 67.0444 75.0067L68.1975 73.8536C69.3513 72.699 71.2196 72.699 72.3741 73.8536L73.9167 75.3955C74.2163 75.6951 74.6733 75.7696 75.053 75.5797C75.5396 75.3372 76.1309 75.534 76.3742 76.0206C76.6167 76.5058 76.4206 77.0985 75.9333 77.3411C74.7942 77.9106 73.4246 77.6877 72.5246 76.7877L70.9819 75.2458C70.5959 74.8597 69.9743 74.8611 69.5897 75.2458L68.4366 76.3989C67.2849 77.5506 65.411 77.5506 64.2593 76.3989L63.1062 75.2458C62.7195 74.8597 62.0979 74.8611 61.714 75.2458L60.5602 76.3989C59.4085 77.5506 57.5346 77.5506 56.3836 76.3989L55.2298 75.2458C54.8438 74.8597 54.2215 74.8611 53.8376 75.2458L52.6838 76.3989C51.5321 77.5506 49.6582 77.5506 48.5072 76.3989C48.1226 76.015 48.1226 75.3913 48.5072 75.0067Z" fill="#D4D4D4"/>
</g>
<path fill-rule="evenodd" clip-rule="evenodd" d="M98.9864 31.2736C98.9864 42.3239 90.0286 51.2818 78.9783 51.2818C67.928 51.2818 58.9695 42.3239 58.9695 31.2736C58.9695 20.2233 67.928 11.2655 78.9783 11.2655C90.0286 11.2655 98.9864 20.2233 98.9864 31.2736Z" fill="#44C0BE"/>
<mask id="mask7_1_6" style="mask-type:luminance" maskUnits="userSpaceOnUse" x="0" y="-4" width="360" height="190">
<path fill-rule="evenodd" clip-rule="evenodd" d="M0 185.591H359.987V-3.29688H0V185.591Z" fill="white"/>
</mask>
<g mask="url(#mask7_1_6)">
<path fill-rule="evenodd" clip-rule="evenodd" d="M77.5752 7.62476H80.1079V-1.39703H77.5752V7.62476Z" fill="#D4D4D4"/>
<path fill-rule="evenodd" clip-rule="evenodd" d="M74.0925 13.112H76.6252V6.8858H74.0925V13.112Z" fill="#D4D4D4"/>
<path fill-rule="evenodd" clip-rule="evenodd" d="M80.8459 13.112H83.3786V6.8858H80.8459V13.112Z" fill="#D4D4D4"/>
<path fill-rule="evenodd" clip-rule="evenodd" d="M74.0862 8.89112H83.3822V6.35846H74.0862V8.89112Z" fill="#D4D4D4"/>
</g>
<mask id="mask8_1_6" style="mask-type:luminance" maskUnits="userSpaceOnUse" x="58" y="28" width="41" height="7">
<path fill-rule="evenodd" clip-rule="evenodd" d="M59.3146 34.9918C59.0882 33.7871 58.9697 32.5442 58.9697 31.2737C58.9697 30.2821 59.0419 29.3073 59.1812 28.3543L98.7752 28.3543C98.9145 29.3073 98.9867 30.2821 98.9867 31.2737C98.9867 32.5442 98.8683 33.7871 98.6418 34.9918H59.3146Z" fill="white"/>
</mask>
<g mask="url(#mask8_1_6)">
<path fill-rule="evenodd" clip-rule="evenodd" d="M89.1435 34.9918L84.0283 31.4438L79.0066 34.9721L73.5665 31.4178L68.2769 34.9714L63.1089 31.4445L58.8838 34.4722L57.4087 32.4134L63.0724 28.3543L68.2881 31.9135L73.5468 28.3796L78.9546 31.9128L84.0178 28.3543L89.1203 31.8931L94.031 28.3733L100.377 32.3706L99.0267 34.5137L94.1224 31.4242L89.1435 34.9918Z" fill="#D4D4D4"/>
</g>
<path fill-rule="evenodd" clip-rule="evenodd" d="M202.076 123.099C204.211 129.703 203.197 138.658 198.612 144.085C195.018 148.339 189.827 150.403 184.271 150.176C182.978 150.124 181.691 149.967 180.417 149.744C179.144 149.967 177.857 150.124 176.564 150.176C171.008 150.403 165.816 148.339 162.222 144.085C157.638 138.658 156.624 129.703 158.759 123.099C159.86 119.688 162.131 116.333 165.693 115.109C170.028 113.62 176.856 114.795 180.418 117.828C183.979 114.795 190.806 113.62 195.142 115.109C198.703 116.333 200.974 119.688 202.076 123.099Z" fill="#C0D54C"/>
<mask id="mask9_1_6" style="mask-type:luminance" maskUnits="userSpaceOnUse" x="162" y="162" width="25" height="24">
<path fill-rule="evenodd" clip-rule="evenodd" d="M186.019 185.591H162.624L162.624 162.196H186.019V185.591Z" fill="white"/>
</mask>
<g mask="url(#mask9_1_6)">
<path fill-rule="evenodd" clip-rule="evenodd" d="M185.968 172.816C186.563 179.248 181.83 184.946 175.398 185.54C168.966 186.135 163.269 181.403 162.674 174.97C162.079 168.538 166.811 162.841 173.244 162.247C179.677 161.652 185.373 166.384 185.968 172.816Z" fill="#EA5453"/>
</g>
<path fill-rule="evenodd" clip-rule="evenodd" d="M160.48 173.58C160.864 173.195 161.488 173.195 161.872 173.58C162.256 173.963 162.881 173.963 163.264 173.58L164.418 172.426C165.572 171.272 167.44 171.272 168.595 172.426L169.748 173.58C170.132 173.963 170.756 173.963 171.14 173.58L172.294 172.426C173.448 171.272 175.316 171.272 176.471 172.426L177.624 173.58C178.008 173.963 178.633 173.963 179.017 173.58L180.17 172.426C181.324 171.272 183.192 171.272 184.346 172.426L185.889 173.968C186.189 174.268 186.646 174.342 187.025 174.153C187.512 173.91 188.103 174.107 188.347 174.593C188.589 175.079 188.393 175.671 187.906 175.914C186.767 176.483 185.397 176.261 184.497 175.361L182.954 173.819C182.568 173.433 181.947 173.434 181.562 173.819L180.409 174.972C179.257 176.123 177.383 176.123 176.232 174.972L175.079 173.819C174.692 173.433 174.071 173.434 173.686 173.819L172.533 174.972C171.381 176.123 169.507 176.123 168.356 174.972L167.203 173.819C166.816 173.433 166.195 173.434 165.811 173.819L164.656 174.972C163.504 176.123 161.631 176.123 160.48 174.972C160.095 174.587 160.095 173.964 160.48 173.58Z" fill="#D4D4D4"/>
<mask id="mask10_1_6" style="mask-type:luminance" maskUnits="userSpaceOnUse" x="0" y="-4" width="360" height="190">
<path fill-rule="evenodd" clip-rule="evenodd" d="M0 185.591H359.987V-3.29688H0V185.591Z" fill="white"/>
</mask>
<g mask="url(#mask10_1_6)">
<path fill-rule="evenodd" clip-rule="evenodd" d="M173.161 159.242H175.694V134.727H173.161V159.242Z" fill="#D4D4D4"/>
<path fill-rule="evenodd" clip-rule="evenodd" d="M169.679 164.729H172.211V158.503H169.679V164.729Z" fill="#D4D4D4"/>
<path fill-rule="evenodd" clip-rule="evenodd" d="M176.432 164.729H178.965V158.503H176.432V164.729Z" fill="#D4D4D4"/>
<path fill-rule="evenodd" clip-rule="evenodd" d="M169.673 160.509H178.969V157.975H169.673V160.509Z" fill="#D4D4D4"/>
<path fill-rule="evenodd" clip-rule="evenodd" d="M174.042 145.711C171.795 145.711 162.941 144.877 161.545 131.908L164.063 131.635C165.39 143.962 173.937 143.208 174.297 143.175L174.559 145.694C174.545 145.696 174.359 145.711 174.042 145.711Z" fill="#D4D4D4"/>
<path fill-rule="evenodd" clip-rule="evenodd" d="M166.879 109.11C166.847 110.33 166.827 111.944 166.908 112.594C167.101 114.122 167.886 116.697 170.977 116.774C172.695 116.816 177.003 116.796 179.151 116.783V112.224C179.141 111.99 178.96 109.653 175.695 109.15C174.016 108.889 169.488 109.004 166.879 109.11ZM174.468 119.332C173.052 119.332 171.721 119.326 170.915 119.306C167.325 119.216 164.888 116.825 164.396 112.909C164.237 111.636 164.372 108.229 164.388 107.845L164.435 106.692L165.588 106.633C165.909 106.618 173.456 106.243 176.082 106.647C180.468 107.325 181.664 110.581 181.683 112.208V119.297L180.428 119.306C180.236 119.308 177.196 119.332 174.468 119.332Z" fill="#D4D4D4"/>
<path fill-rule="evenodd" clip-rule="evenodd" d="M186.559 110.732C188.054 110.739 190.475 110.748 191.496 110.723C192.801 110.691 193.561 109.893 193.754 108.35C193.794 108.032 193.794 107.269 193.78 106.528C192.051 106.466 189.459 106.411 188.468 106.565C186.597 106.854 186.56 108.123 186.559 108.176V110.732ZM189.207 113.273C187.409 113.273 185.409 113.257 185.282 113.256L184.027 113.246V108.162C184.041 106.948 184.907 104.554 188.08 104.062C189.823 103.794 194.543 104.022 195.075 104.048L196.228 104.107L196.276 105.262C196.293 105.679 196.375 107.813 196.267 108.666C195.995 110.835 194.615 113.179 191.558 113.256C191.025 113.268 190.143 113.273 189.207 113.273Z" fill="#D4D4D4"/>
<path fill-rule="evenodd" clip-rule="evenodd" d="M179.151 117.828H181.683V-0.763489H179.151V117.828Z" fill="#D4D4D4"/>
<path fill-rule="evenodd" clip-rule="evenodd" d="M204.016 124.819C196.794 124.819 190.92 130.694 190.92 137.916C190.92 145.137 196.794 151.013 204.016 151.013C211.238 151.013 217.112 145.137 217.112 137.916C217.112 130.694 211.238 124.819 204.016 124.819ZM204.016 153.545C195.399 153.545 188.387 146.534 188.387 137.916C188.387 129.298 195.399 122.286 204.016 122.286C212.634 122.286 219.645 129.298 219.645 137.916C219.645 146.534 212.634 153.545 204.016 153.545Z" fill="#D4D4D4"/>
<path fill-rule="evenodd" clip-rule="evenodd" d="M202.613 118.066H205.146V-2.74493H202.613V118.066Z" fill="#D4D4D4"/>
<path fill-rule="evenodd" clip-rule="evenodd" d="M199.131 123.553H201.664V117.328H199.131V123.553Z" fill="#D4D4D4"/>
<path fill-rule="evenodd" clip-rule="evenodd" d="M205.884 123.553H208.417V117.328H205.884V123.553Z" fill="#D4D4D4"/>
<path fill-rule="evenodd" clip-rule="evenodd" d="M199.124 119.332H208.421V116.8H199.124V119.332Z" fill="#D4D4D4"/>
</g>
<mask id="mask11_1_6" style="mask-type:luminance" maskUnits="userSpaceOnUse" x="189" y="135" width="30" height="7">
<path fill-rule="evenodd" clip-rule="evenodd" d="M189.99 141.022C189.77 140.022 189.653 138.982 189.653 137.916C189.653 137.052 189.73 136.205 189.876 135.383L218.157 135.383C218.303 136.205 218.379 137.052 218.379 137.916C218.379 138.982 218.263 140.022 218.043 141.022H189.99Z" fill="white"/>
</mask>
<g mask="url(#mask11_1_6)">
<path fill-rule="evenodd" clip-rule="evenodd" d="M211.317 141.022L207.642 138.473L204.044 141.002L200.134 138.448L196.333 141.002L192.629 138.475L189.8 140.502L188.325 138.444L192.593 135.383L196.344 137.943L200.115 135.411L203.992 137.943L207.633 135.385L211.294 137.924L214.809 135.404L219.567 138.402L218.217 140.543L214.901 138.454L211.317 141.022Z" fill="#D4D4D4"/>
</g>
<path fill-rule="evenodd" clip-rule="evenodd" d="M283.293 147.688L278.666 152.314L274.04 147.688L278.666 143.062L283.293 147.688Z" fill="#F5BF48"/>
<path fill-rule="evenodd" clip-rule="evenodd" d="M280.457 11.057L283.293 13.8927L286.128 11.057L283.293 8.22134L280.457 11.057ZM283.293 17.4738L276.876 11.057L283.293 4.64032L289.709 11.057L283.293 17.4738Z" fill="#D4D4D4"/>
<path fill-rule="evenodd" clip-rule="evenodd" d="M265.661 85.2891H268.194V-0.764221H265.661V85.2891Z" fill="#D4D4D4"/>
<path fill-rule="evenodd" clip-rule="evenodd" d="M264.237 86.5555H269.618V84.0228H264.237V86.5555Z" fill="#D4D4D4"/>
<path fill-rule="evenodd" clip-rule="evenodd" d="M25.2404 185.094L19.7539 179.396L21.5778 177.639L27.0643 183.338L25.2404 185.094Z" fill="#D4D4D4"/>
<path fill-rule="evenodd" clip-rule="evenodd" d="M21.5778 185.094L19.7539 183.338L25.2404 177.639L27.0643 179.396L21.5778 185.094Z" fill="#D4D4D4"/>
<path fill-rule="evenodd" clip-rule="evenodd" d="M117.748 143.603L112.26 137.905L114.084 136.149L119.572 141.847L117.748 143.603Z" fill="#D4D4D4"/>
<path fill-rule="evenodd" clip-rule="evenodd" d="M114.084 143.603L112.26 141.847L117.747 136.149L119.571 137.905L114.084 143.603Z" fill="#D4D4D4"/>
<path fill-rule="evenodd" clip-rule="evenodd" d="M250.16 33.6971L244.673 27.999L246.497 26.2419L251.984 31.94L250.16 33.6971Z" fill="#D4D4D4"/>
<path fill-rule="evenodd" clip-rule="evenodd" d="M246.497 33.6971L244.673 31.94L250.16 26.2419L251.984 27.999L246.497 33.6971Z" fill="#D4D4D4"/>
<path fill-rule="evenodd" clip-rule="evenodd" d="M232.204 121.105L226.718 115.407L228.541 113.65L234.028 119.348L232.204 121.105Z" fill="#D4D4D4"/>
<path fill-rule="evenodd" clip-rule="evenodd" d="M228.541 121.105L226.718 119.348L232.204 113.65L234.028 115.407L228.541 121.105Z" fill="#D4D4D4"/>
<path fill-rule="evenodd" clip-rule="evenodd" d="M289.352 76.9843L283.865 71.2861L285.689 69.5297L291.176 75.2286L289.352 76.9843Z" fill="#D4D4D4"/>
<path fill-rule="evenodd" clip-rule="evenodd" d="M285.689 76.9843L283.865 75.2286L289.352 69.5297L291.176 71.2861L285.689 76.9843Z" fill="#D4D4D4"/>
<path fill-rule="evenodd" clip-rule="evenodd" d="M297.337 170.039L291.85 164.34L293.674 162.584L299.161 168.283L297.337 170.039Z" fill="#D4D4D4"/>
<path fill-rule="evenodd" clip-rule="evenodd" d="M293.674 170.039L291.85 168.283L297.337 162.584L299.161 164.34L293.674 170.039Z" fill="#D4D4D4"/>
<path fill-rule="evenodd" clip-rule="evenodd" d="M358.162 21.7976L352.675 16.0995L354.499 14.3417L359.986 20.0405L358.162 21.7976Z" fill="#D4D4D4"/>
<path fill-rule="evenodd" clip-rule="evenodd" d="M354.499 21.7976L352.675 20.0405L358.162 14.3417L359.986 16.0995L354.499 21.7976Z" fill="#D4D4D4"/>
<path fill-rule="evenodd" clip-rule="evenodd" d="M296.652 40.1021H299.185V37.2531H296.652V40.1021Z" fill="#D4D4D4"/>
<path fill-rule="evenodd" clip-rule="evenodd" d="M296.652 35.299H299.185V24.5905H296.652V35.299Z" fill="#D4D4D4"/>
<path fill-rule="evenodd" clip-rule="evenodd" d="M291.825 49.0451H294.358V33.8499H291.825V49.0451Z" fill="#D4D4D4"/>
<path fill-rule="evenodd" clip-rule="evenodd" d="M334.734 103.985C334.356 103.985 333.989 103.785 333.793 103.431L329.786 96.2318C329.597 95.8943 329.605 95.4823 329.805 95.1511L330.094 94.6737C330.376 94.2075 330.963 94.0268 331.462 94.2518L334.219 95.5104L335.896 94.6161C336.422 94.3334 337.073 94.5352 337.352 95.0583C337.632 95.5829 337.433 96.2361 336.909 96.5152L334.762 97.6599C334.467 97.8174 334.113 97.8265 333.809 97.6901L332.805 97.2324L335.674 102.386C335.963 102.904 335.776 103.561 335.257 103.849C335.091 103.941 334.911 103.985 334.734 103.985Z" fill="#D4D4D4"/>
<path fill-rule="evenodd" clip-rule="evenodd" d="M338.161 103.985C337.984 103.985 337.805 103.941 337.639 103.85C337.119 103.561 336.933 102.905 337.222 102.386L340.09 97.231L339.086 97.6902C338.78 97.8266 338.426 97.8175 338.132 97.66L335.986 96.5153C335.462 96.2361 335.263 95.5829 335.543 95.0584C335.822 94.5353 336.474 94.3335 336.999 94.6161L338.676 95.5105L341.433 94.2519C341.932 94.0262 342.519 94.2076 342.801 94.6738L343.089 95.1512C343.29 95.4824 343.297 95.8944 343.11 96.2319L339.102 103.431C338.906 103.785 338.539 103.985 338.161 103.985Z" fill="#D4D4D4"/>
<path fill-rule="evenodd" clip-rule="evenodd" d="M331.015 134.075C330.649 134.075 330.295 133.887 330.094 133.556L329.805 133.078C329.605 132.747 329.597 132.335 329.786 131.998L333.793 124.798C334.081 124.279 334.736 124.093 335.257 124.38C335.776 124.67 335.963 125.325 335.674 125.845L332.805 130.997L333.809 130.54C334.113 130.401 334.467 130.412 334.762 130.57L336.909 131.715C337.433 131.994 337.632 132.647 337.352 133.171C337.073 133.694 336.422 133.895 335.896 133.614L334.219 132.718L331.462 133.977C331.317 134.043 331.165 134.075 331.015 134.075Z" fill="#D4D4D4"/>
<path fill-rule="evenodd" clip-rule="evenodd" d="M341.879 134.075C341.73 134.075 341.578 134.043 341.433 133.977L338.676 132.718L336.999 133.614C336.476 133.895 335.824 133.694 335.543 133.171C335.264 132.647 335.461 131.994 335.987 131.715L338.132 130.57C338.426 130.412 338.78 130.401 339.086 130.54L340.089 130.999L337.221 125.845C336.932 125.325 337.119 124.67 337.638 124.38C338.158 124.093 338.814 124.279 339.103 124.798L343.109 131.998C343.297 132.335 343.289 132.747 343.09 133.078L342.801 133.556C342.6 133.887 342.246 134.075 341.879 134.075Z" fill="#D4D4D4"/>
<path fill-rule="evenodd" clip-rule="evenodd" d="M336.448 104.175C334.078 104.175 332.15 106.102 332.15 108.472V119.758C332.15 122.127 334.078 124.055 336.448 124.055C338.817 124.055 340.745 122.127 340.745 119.758V108.472C340.745 106.102 338.817 104.175 336.448 104.175ZM336.448 126.588C332.682 126.588 329.618 123.523 329.618 119.758V108.472C329.618 104.706 332.682 101.641 336.448 101.641C340.214 101.641 343.277 104.706 343.277 108.472V119.758C343.277 123.523 340.214 126.588 336.448 126.588Z" fill="#D4D4D4"/>
<path fill-rule="evenodd" clip-rule="evenodd" d="M331.11 114.976C330.707 114.976 330.31 114.784 330.065 114.426C329.669 113.849 329.817 113.062 330.393 112.666L340.646 105.631C341.224 105.235 342.012 105.381 342.407 105.959C342.802 106.535 342.655 107.323 342.079 107.719L331.826 114.754C331.607 114.904 331.357 114.976 331.11 114.976Z" fill="#D4D4D4"/>
<path fill-rule="evenodd" clip-rule="evenodd" d="M331.11 122.407C330.707 122.407 330.31 122.215 330.065 121.857C329.669 121.28 329.817 120.492 330.393 120.097L340.646 113.062C341.224 112.664 342.012 112.812 342.407 113.39C342.802 113.966 342.655 114.753 342.079 115.15L331.826 122.184C331.607 122.335 331.357 122.407 331.11 122.407Z" fill="#D4D4D4"/>
<path fill-rule="evenodd" clip-rule="evenodd" d="M335.181 95.507H337.714V-3.29688H335.181V95.507Z" fill="#D4D4D4"/>
<path fill-rule="evenodd" clip-rule="evenodd" d="M153.652 99.7871L151.505 98.4427L152.648 96.6174L154.795 97.9617L153.652 99.7871Z" fill="#D4D4D4"/>
<path fill-rule="evenodd" clip-rule="evenodd" d="M144.736 99.7871L143.593 97.9617L145.74 96.6174L146.882 98.4427L144.736 99.7871Z" fill="#D4D4D4"/>
<path fill-rule="evenodd" clip-rule="evenodd" d="M150.252 101.971L148.099 101.939L148.136 99.4064L150.289 99.438L150.252 101.971Z" fill="#D4D4D4"/>
<path fill-rule="evenodd" clip-rule="evenodd" d="M152.648 95.4612L151.505 93.6359L153.652 92.2922L154.795 94.1175L152.648 95.4612Z" fill="#D4D4D4"/>
<path fill-rule="evenodd" clip-rule="evenodd" d="M145.739 95.4612L143.593 94.1175L144.735 92.2922L146.882 93.6359L145.739 95.4612Z" fill="#D4D4D4"/>
<path fill-rule="evenodd" clip-rule="evenodd" d="M148.136 92.6727L148.099 90.1415L150.252 90.1091L150.289 92.6404L148.136 92.6727Z" fill="#D4D4D4"/>
<path fill-rule="evenodd" clip-rule="evenodd" d="M77.8153 120.498L74.6533 117.336L76.1756 115.816L79.3375 118.978L77.8153 120.498Z" fill="#D4D4D4"/>
<path fill-rule="evenodd" clip-rule="evenodd" d="M88.3602 120.5L86.8379 118.976L90.0005 115.814L91.5228 117.338L88.3602 120.5Z" fill="#D4D4D4"/>
<path fill-rule="evenodd" clip-rule="evenodd" d="M76.1753 131.982L74.6531 130.46L77.815 127.299L79.3373 128.82L76.1753 131.982Z" fill="#D4D4D4"/>
<path fill-rule="evenodd" clip-rule="evenodd" d="M90.0003 131.983L86.8376 128.821L88.3599 127.298L91.5226 130.46L90.0003 131.983Z" fill="#D4D4D4"/>
<path fill-rule="evenodd" clip-rule="evenodd" d="M82.0117 118.089H84.1647V113.616H82.0117V118.089Z" fill="#D4D4D4"/>
<path fill-rule="evenodd" clip-rule="evenodd" d="M82.0117 134.18H84.1647V129.708H82.0117V134.18Z" fill="#D4D4D4"/>
<path fill-rule="evenodd" clip-rule="evenodd" d="M72.8059 124.974H77.2778V122.822H72.8059V124.974Z" fill="#D4D4D4"/>
<path fill-rule="evenodd" clip-rule="evenodd" d="M88.8982 124.974H93.3701V122.822H88.8982V124.974Z" fill="#D4D4D4"/>
</g>
</svg>
